<svg xmlns="http://www.w3.org/2000/svg" xmlns:xlink="http://www.w3.org/1999/xlink" viewBox="0,0,256,256" width="100px" height="100px" fill-rule="nonzero"><g fill="none" fill-rule="nonzero" stroke="none" stroke-width="1" stroke-linecap="butt" stroke-linejoin="miter" stroke-miterlimit="10" stroke-dasharray="" stroke-dashoffset="0" font-family="none" font-weight="none" font-size="none" text-anchor="none" style="mix-blend-mode: normal"><g transform="scale(2.56,2.56)"><path d="M87.215,56.71c1.135,-2.155 1.785,-4.605 1.785,-7.21c0,-6.621 -4.159,-12.257 -10.001,-14.478c0,-0.007 0.001,-0.014 0.001,-0.022c0,-11.598 -9.402,-21 -21,-21c-9.784,0 -17.981,6.701 -20.313,15.757c-1.476,-0.485 -3.049,-0.757 -4.687,-0.757c-7.692,0 -14.023,5.793 -14.89,13.252c-5.204,1.101 -9.11,5.717 -9.11,11.248c0,6.351 5.149,11.5 11.5,11.5c0.177,0 0.352,-0.012 0.526,-0.022c-0.004,0.175 -0.026,0.346 -0.026,0.522c0,11.322 9.178,20.5 20.5,20.5c6.437,0 12.175,-2.972 15.934,-7.614c2.178,2.225 5.206,3.614 8.566,3.614c4.65,0 8.674,-2.65 10.666,-6.518c1.052,0.335 2.171,0.518 3.334,0.518c6.075,0 11,-4.925 11,-11c0,-3.311 -1.47,-6.273 -3.785,-8.29z" fill="#3080e8"></path><path d="M72.5,43.5v0.5h-3v-0.5c0,0 -4.242,0 -5.5,0c-2.485,0 -4.5,-2.015 -4.5,-4.5c0,-2.333 1.782,-4.229 4.055,-4.455c-0.022,-0.181 -0.055,-0.358 -0.055,-0.545c0,-2.485 2.015,-4.5 4.5,-4.5c1.438,0 2.703,0.686 3.527,1.736c0.14,-2.636 2.302,-4.736 4.973,-4.736c2.761,0 5,2.239 5,5c0,0.446 -0.077,0.87 -0.187,1.282c0.642,-0.777 1.6,-1.282 2.687,-1.282c1.781,0 3.234,1.335 3.455,3.055c0.181,-0.022 0.358,-0.055 0.545,-0.055c2.485,0 4.5,2.015 4.5,4.5c0,2.485 -2.015,4.5 -4.5,4.5c-2.485,0 -9.5,0 -9.5,0z" fill="#fdfcef"></path><path d="M76.5,26c3.033,0 5.5,2.467 5.5,5.5c0,0.016 0,0.031 0,0.047c0.602,-0.355 1.29,-0.547 2,-0.547c1.831,0 3.411,1.261 3.858,3.005c0.047,-0.003 0.094,-0.005 0.142,-0.005c2.757,0 5,2.243 5,5c0,2.757 -2.243,5 -5,5h-15.5c-0.276,0 -0.5,-0.224 -0.5,-0.5c0,-0.276 0.224,-0.5 0.5,-0.5h15.5c2.206,0 4,-1.794 4,-4c0,-2.206 -1.794,-4 -4,-4c-0.117,0 -0.23,0.017 -0.343,0.032l-0.141,0.019c-0.021,0.003 -0.041,0.004 -0.062,0.004c-0.246,0 -0.462,-0.185 -0.495,-0.437c-0.191,-1.493 -1.463,-2.618 -2.959,-2.618c-0.885,0 -1.723,0.401 -2.301,1.1c-0.098,0.118 -0.241,0.182 -0.386,0.182c-0.078,0 -0.156,-0.018 -0.228,-0.056c-0.209,-0.107 -0.314,-0.346 -0.254,-0.573c0.115,-0.435 0.169,-0.801 0.169,-1.153c0,-2.481 -2.019,-4.5 -4.5,-4.5c-2.381,0 -4.347,1.872 -4.474,4.263c-0.011,0.208 -0.15,0.387 -0.349,0.45c-0.05,0.016 -0.101,0.024 -0.152,0.024c-0.15,0 -0.296,-0.069 -0.392,-0.192c-0.771,-0.982 -1.912,-1.545 -3.133,-1.545c-2.206,0 -4,1.794 -4,4c0,0.117 0.017,0.23 0.032,0.343l0.019,0.141c0.016,0.134 -0.022,0.268 -0.106,0.373c-0.084,0.105 -0.207,0.172 -0.34,0.185c-2.056,0.205 -3.605,1.907 -3.605,3.958c0,2.206 1.794,4 4,4h5.5c0.276,0 0.5,0.224 0.5,0.5c0,0.276 -0.224,0.5 -0.5,0.5h-5.5c-2.757,0 -5,-2.243 -5,-5c0,-2.397 1.689,-4.413 4.003,-4.877c-0.002,-0.041 -0.003,-0.082 -0.003,-0.123c0,-2.757 2.243,-5 5,-5c1.176,0 2.293,0.416 3.183,1.164c0.598,-2.404 2.762,-4.164 5.317,-4.164z" fill="#472b29"></path><path d="M78,33c1.403,0 2.609,0.999 2.913,2.341c0.367,-0.222 0.786,-0.341 1.212,-0.341c1.202,0 2.198,0.897 2.353,2.068c0.203,-0.046 0.396,-0.068 0.585,-0.068c1.529,0 2.811,1.2 2.918,2.732c0.009,0.138 -0.095,0.258 -0.232,0.268c-0.006,0 -0.012,0 -0.018,0c-0.13,0 -0.24,-0.101 -0.249,-0.232c-0.089,-1.271 -1.151,-2.268 -2.419,-2.268c-0.229,0 -0.47,0.042 -0.738,0.127c-0.022,0.007 -0.045,0.01 -0.067,0.01c-0.055,0 -0.11,-0.02 -0.156,-0.054c-0.064,-0.046 -0.102,-0.128 -0.102,-0.208c0,-1.034 -0.841,-1.875 -1.875,-1.875c-0.447,0 -0.885,0.168 -1.231,0.473c-0.047,0.041 -0.106,0.063 -0.165,0.063c-0.032,0 -0.063,-0.006 -0.093,-0.019c-0.088,-0.035 -0.148,-0.117 -0.155,-0.212c-0.104,-1.293 -1.193,-2.305 -2.481,-2.305c-0.208,0 -0.425,0.034 -0.682,0.107c-0.023,0.007 -0.047,0.01 -0.07,0.01c-0.109,0 -0.207,-0.073 -0.239,-0.182c-0.038,-0.133 0.039,-0.271 0.172,-0.309c0.302,-0.086 0.563,-0.126 0.819,-0.126zM64.117,34.5c1.326,0 2.508,0.897 2.874,2.182c0.038,0.133 -0.039,0.271 -0.172,0.309c-0.024,0.006 -0.047,0.009 -0.069,0.009c-0.109,0 -0.209,-0.072 -0.24,-0.182c-0.305,-1.07 -1.289,-1.818 -2.393,-1.818c-0.117,0 -0.23,0.014 -0.342,0.029c-0.012,0.002 -0.023,0.003 -0.035,0.003c-0.121,0 -0.229,-0.092 -0.246,-0.217c-0.019,-0.137 0.077,-0.263 0.214,-0.281c0.134,-0.018 0.27,-0.034 0.409,-0.034z" fill="#472b29"></path><path d="M86.5,68h-10c-0.276,0 -0.5,-0.224 -0.5,-0.5c0,-0.276 0.224,-0.5 0.5,-0.5h10c0.276,0 0.5,0.224 0.5,0.5c0,0.276 -0.223,0.5 -0.5,0.5zM89.5,68h-1c-0.276,0 -0.5,-0.224 -0.5,-0.5c0,-0.276 0.224,-0.5 0.5,-0.5h1c0.276,0 0.5,0.224 0.5,0.5c0,0.276 -0.223,0.5 -0.5,0.5zM94.491,70h-8.991c-0.276,0 -0.5,-0.224 -0.5,-0.5c0,-0.276 0.224,-0.5 0.5,-0.5h8.991c0.276,0 0.5,0.224 0.5,0.5c0,0.276 -0.224,0.5 -0.5,0.5zM83.5,70h-1c-0.276,0 -0.5,-0.224 -0.5,-0.5c0,-0.276 0.224,-0.5 0.5,-0.5h1c0.276,0 0.5,0.224 0.5,0.5c0,0.276 -0.223,0.5 -0.5,0.5zM80.5,70h-2c-0.276,0 -0.5,-0.224 -0.5,-0.5c0,-0.276 0.224,-0.5 0.5,-0.5h2c0.276,0 0.5,0.224 0.5,0.5c0,0.276 -0.223,0.5 -0.5,0.5zM86.5,72h-2c-0.276,0 -0.5,-0.224 -0.5,-0.5c0,-0.276 0.224,-0.5 0.5,-0.5h2c0.276,0 0.5,0.224 0.5,0.5c0,0.276 -0.224,0.5 -0.5,0.5zM89.5,63c-0.177,0 -0.823,0 -1,0c-0.276,0 -0.5,0.224 -0.5,0.5c0,0.276 0.224,0.5 0.5,0.5c0.177,0 0.823,0 1,0c0.276,0 0.5,-0.224 0.5,-0.5c0,-0.276 -0.224,-0.5 -0.5,-0.5zM89.5,65c-0.177,0 -4.823,0 -5,0c-0.276,0 -0.5,0.224 -0.5,0.5c0,0.276 0.224,0.5 0.5,0.5c0.177,0 4.823,0 5,0c0.276,0 0.5,-0.224 0.5,-0.5c0,-0.276 -0.224,-0.5 -0.5,-0.5zM94.5,67c-0.177,0 -2.823,0 -3,0c-0.276,0 -0.5,0.224 -0.5,0.5c0,0.276 0.224,0.5 0.5,0.5c0.177,0 2.823,0 3,0c0.276,0 0.5,-0.224 0.5,-0.5c0,-0.276 -0.224,-0.5 -0.5,-0.5z" fill="#ffffff"></path><g fill="#ffffff"><path d="M48.5,20h-10c-0.276,0 -0.5,-0.224 -0.5,-0.5c0,-0.276 0.224,-0.5 0.5,-0.5h10c0.276,0 0.5,0.224 0.5,0.5c0,0.276 -0.224,0.5 -0.5,0.5zM52.5,20h-2c-0.276,0 -0.5,-0.224 -0.5,-0.5c0,-0.276 0.224,-0.5 0.5,-0.5h2c0.276,0 0.5,0.224 0.5,0.5c0,0.276 -0.224,0.5 -0.5,0.5zM57.5,22h-10c-0.276,0 -0.5,-0.224 -0.5,-0.5c0,-0.276 0.224,-0.5 0.5,-0.5h10c0.276,0 0.5,0.224 0.5,0.5c0,0.276 -0.223,0.5 -0.5,0.5zM45.5,22h-1c-0.276,0 -0.5,-0.224 -0.5,-0.5c0,-0.276 0.224,-0.5 0.5,-0.5h1c0.276,0 0.5,0.224 0.5,0.5c0,0.276 -0.224,0.5 -0.5,0.5zM42.47,22h-1.97c-0.276,0 -0.5,-0.224 -0.5,-0.5c0,-0.276 0.224,-0.5 0.5,-0.5h1.97c0.276,0 0.5,0.224 0.5,0.5c0,0.276 -0.224,0.5 -0.5,0.5zM51.5,18h-5c-0.276,0 -0.5,-0.224 -0.5,-0.5c0,-0.276 0.224,-0.5 0.5,-0.5h5c0.276,0 0.5,0.224 0.5,0.5c0,0.276 -0.223,0.5 -0.5,0.5zM48.5,24h-2c-0.276,0 -0.5,-0.224 -0.5,-0.5c0,-0.276 0.224,-0.5 0.5,-0.5h2c0.276,0 0.5,0.224 0.5,0.5c0,0.276 -0.224,0.5 -0.5,0.5z"></path></g><g><path d="M52,26.75c-12.84062,0 -23.25,10.40938 -23.25,23.25c0,12.84062 10.40938,23.25 23.25,23.25c12.84062,0 23.25,-10.40938 23.25,-23.25c0,-12.84062 -10.40938,-23.25 -23.25,-23.25z" fill="#78a2d2"></path><path d="M52,73.95c-13.206,0 -23.95,-10.744 -23.95,-23.95c0,-13.206 10.744,-23.95 23.95,-23.95c13.206,0 23.95,10.744 23.95,23.95c0,13.206 -10.744,23.95 -23.95,23.95zM52,27.45c-12.434,0 -22.55,10.115 -22.55,22.55c0,12.435 10.116,22.55 22.55,22.55c12.434,0 22.55,-10.115 22.55,-22.55c0,-12.435 -10.116,-22.55 -22.55,-22.55z" fill="#472b29"></path></g><g fill="#472b29"><path d="M69.399,59.188c-0.073,0 -0.148,-0.017 -0.218,-0.051c-0.249,-0.121 -0.352,-0.42 -0.231,-0.668c0.126,-0.259 0.246,-0.52 0.359,-0.782c0.44,-1.021 0.79,-2.089 1.041,-3.176c0.063,-0.27 0.331,-0.438 0.6,-0.375c0.269,0.063 0.437,0.331 0.375,0.6c-0.265,1.146 -0.634,2.271 -1.097,3.347c-0.119,0.277 -0.245,0.552 -0.378,0.824c-0.088,0.178 -0.266,0.281 -0.451,0.281z"></path></g><g fill="#472b29"><path d="M71.411,52.378c-0.015,0 -0.03,-0.001 -0.045,-0.002c-0.275,-0.025 -0.478,-0.269 -0.453,-0.543c0.037,-0.409 0.061,-0.82 0.071,-1.23c0.064,-2.552 -0.374,-5.047 -1.299,-7.417c-0.101,-0.257 0.027,-0.547 0.284,-0.647c0.259,-0.101 0.547,0.025 0.648,0.284c0.975,2.493 1.435,5.12 1.368,7.806c-0.011,0.432 -0.036,0.864 -0.075,1.295c-0.025,0.259 -0.243,0.454 -0.499,0.454z"></path></g><g fill="#472b29"><path d="M37.734,37.24c-0.123,0 -0.245,-0.045 -0.341,-0.135c-0.202,-0.188 -0.212,-0.505 -0.024,-0.706c3.259,-3.491 7.669,-5.696 12.418,-6.209c0.279,-0.033 0.521,0.169 0.551,0.443c0.03,0.274 -0.169,0.521 -0.443,0.551c-4.511,0.487 -8.7,2.582 -11.794,5.896c-0.1,0.107 -0.233,0.16 -0.367,0.16z"></path></g><g fill="#472b29"><path d="M38.721,64.782c-0.123,0 -0.245,-0.045 -0.341,-0.135c-6.812,-6.36 -8.363,-16.435 -3.772,-24.499c0.136,-0.241 0.441,-0.323 0.682,-0.188c0.24,0.137 0.324,0.442 0.187,0.682c-4.36,7.661 -2.886,17.231 3.586,23.274c0.202,0.188 0.212,0.505 0.024,0.706c-0.099,0.107 -0.232,0.16 -0.366,0.16z"></path></g><g fill="#472b29"><path d="M60.515,68.119c-0.186,0 -0.365,-0.104 -0.451,-0.283c-0.12,-0.248 -0.016,-0.547 0.233,-0.667c2.107,-1.016 3.992,-2.405 5.604,-4.13c0.65,-0.697 1.251,-1.445 1.786,-2.225c0.156,-0.226 0.468,-0.283 0.695,-0.129c0.228,0.156 0.286,0.468 0.129,0.695c-0.563,0.819 -1.195,1.607 -1.879,2.34c-1.696,1.816 -3.681,3.279 -5.9,4.349c-0.071,0.035 -0.145,0.05 -0.217,0.05z"></path></g><g><path d="M48.5,73v-16.5h-6v-6h6v-5.954c-0.13,-5.342 5.25,-10.629 14,-7.658v5.612l-3.372,-0.021c-2.594,0 -3.628,0.607 -3.628,2.41v5.611h6.827l-1.2,6h-5.627v16.5" fill="#ffffff"></path><path d="M56,73h-1v-17h5.717l1,-5h-6.717v-6.111c0,-2.558 1.984,-2.91 4.128,-2.91l2.872,0.018v-4.746c-3.844,-1.222 -7.33,-0.881 -9.848,0.973c-2.033,1.494 -3.211,3.853 -3.152,6.311v6.465h-6v5h6v17h-1v-16h-6v-7h6v-5.454c-0.067,-2.771 1.263,-5.441 3.56,-7.129c2.864,-2.104 6.808,-2.461 11.101,-1.002l0.339,0.115v6.473l-3.875,-0.024c-2.641,0 -3.125,0.644 -3.125,1.91v5.111h6.937l-1.4,7h-5.537z" fill="#472b29"></path></g><g fill="#472b29"><path d="M52,73.93c-13.194,0 -23.929,-10.735 -23.929,-23.93c0,-13.195 10.735,-23.93 23.929,-23.93c13.194,0 23.929,10.736 23.929,23.93c0,13.194 -10.735,23.93 -23.929,23.93zM52,27.471c-12.422,0 -22.529,10.106 -22.529,22.529c0,12.423 10.107,22.529 22.529,22.529c12.422,0 22.529,-10.106 22.529,-22.529c0,-12.423 -10.107,-22.529 -22.529,-22.529z"></path></g><g><path d="M36.5,66.5c0,0 1.567,0 3.5,0c1.933,0 3.5,-1.567 3.5,-3.5c0,-1.781 -1.335,-3.234 -3.055,-3.455c0.028,-0.179 0.055,-0.358 0.055,-0.545c0,-1.933 -1.567,-3.5 -3.5,-3.5c-1.032,0 -1.95,0.455 -2.59,1.165c-0.384,-1.808 -1.987,-3.165 -3.91,-3.165c-2.209,0 -4,1.791 -4,4c0,0.191 0.03,0.374 0.056,0.558c-0.428,-0.344 -0.964,-0.558 -1.556,-0.558c-1.228,0 -2.245,0.887 -2.455,2.055c-0.179,-0.028 -0.358,-0.055 -0.545,-0.055c-1.933,0 -3.5,1.567 -3.5,3.5c0,1.933 1.567,3.5 3.5,3.5c1.933,0 7.5,0 7.5,0v0.5h7z" fill="#fdfcef"></path><path d="M38.25,62c-0.138,0 -0.25,-0.112 -0.25,-0.25c0,-1.223 0.995,-2.218 2.218,-2.218c0.034,0.009 0.737,-0.001 1.244,0.136c0.133,0.036 0.212,0.173 0.176,0.306c-0.036,0.134 -0.173,0.213 -0.306,0.176c-0.444,-0.12 -1.1,-0.12 -1.113,-0.118c-0.948,0 -1.719,0.771 -1.719,1.718c0,0.138 -0.112,0.25 -0.25,0.25zM31.5,66c-0.27614,0 -0.5,0.22386 -0.5,0.5c0,0.27614 0.22386,0.5 0.5,0.5c0.27614,0 0.5,-0.22386 0.5,-0.5c0,-0.27614 -0.22386,-0.5 -0.5,-0.5z" fill="#472b29"></path><path d="M40,67h-3.5c-0.276,0 -0.5,-0.224 -0.5,-0.5c0,-0.276 0.224,-0.5 0.5,-0.5h3.5c1.654,0 3,-1.346 3,-3c0,-1.496 -1.125,-2.768 -2.618,-2.959c-0.134,-0.018 -0.255,-0.088 -0.336,-0.196c-0.081,-0.108 -0.115,-0.244 -0.094,-0.377c0.023,-0.154 0.048,-0.308 0.048,-0.468c0,-1.654 -1.346,-3 -3,-3c-0.85,0 -1.638,0.355 -2.219,1c-0.125,0.139 -0.321,0.198 -0.5,0.148c-0.182,-0.049 -0.321,-0.195 -0.36,-0.379c-0.341,-1.604 -1.78,-2.769 -3.421,-2.769c-1.93,0 -3.5,1.57 -3.5,3.5c0,0.143 0.021,0.28 0.041,0.418c0.029,0.203 -0.063,0.438 -0.242,0.54c-0.179,0.102 -0.396,0.118 -0.556,-0.01c-0.365,-0.293 -0.794,-0.448 -1.243,-0.448c-0.966,0 -1.792,0.691 -1.963,1.644c-0.048,0.267 -0.296,0.446 -0.569,0.405c-0.154,-0.024 -0.308,-0.049 -0.468,-0.049c-1.654,0 -3,1.346 -3,3c0,1.654 1.346,3 3,3h7.5c0.276,0 0.5,0.224 0.5,0.5c0,0.276 -0.224,0.5 -0.5,0.5h-7.5c-2.206,0 -4,-1.794 -4,-4c0,-2.206 1.794,-4 4,-4c0.059,0 0.116,0.002 0.174,0.006c0.414,-1.186 1.537,-2.006 2.826,-2.006c0.349,0 0.689,0.061 1.011,0.18c0.165,-2.333 2.115,-4.18 4.489,-4.18c1.831,0 3.466,1.127 4.153,2.774c0.68,-0.498 1.502,-0.774 2.347,-0.774c2.206,0 4,1.794 4,4c0,0.048 -0.001,0.095 -0.004,0.142c1.743,0.448 3.004,2.027 3.004,3.858c0,2.206 -1.794,4 -4,4z" fill="#472b29"></path><path d="M34.5,66c-0.159,0 -0.841,0 -1,0c-0.276,0 -0.5,0.224 -0.5,0.5c0,0.276 0.224,0.5 0.5,0.5c0.159,0 0.841,0 1,0c0.276,0 0.5,-0.224 0.5,-0.5c0,-0.276 -0.224,-0.5 -0.5,-0.5z" fill="#472b29"></path></g></g></g></svg>