<svg xmlns="http://www.w3.org/2000/svg" xmlns:xlink="http://www.w3.org/1999/xlink" viewBox="0,0,256,256" width="100px" height="100px" fill-rule="nonzero"><g fill="none" fill-rule="nonzero" stroke="none" stroke-width="1" stroke-linecap="butt" stroke-linejoin="miter" stroke-miterlimit="10" stroke-dasharray="" stroke-dashoffset="0" font-family="none" font-weight="none" font-size="none" text-anchor="none" style="mix-blend-mode: normal"><g transform="scale(2.56,2.56)"><path d="M87.215,56.71c1.135,-2.155 1.785,-4.605 1.785,-7.21c0,-6.621 -4.159,-12.257 -10.001,-14.478c0,-0.007 0.001,-0.014 0.001,-0.022c0,-11.598 -9.402,-21 -21,-21c-9.784,0 -17.981,6.701 -20.313,15.757c-1.476,-0.485 -3.049,-0.757 -4.687,-0.757c-7.692,0 -14.023,5.793 -14.89,13.252c-5.204,1.101 -9.11,5.717 -9.11,11.248c0,6.351 5.149,11.5 11.5,11.5c0.177,0 0.352,-0.012 0.526,-0.022c-0.004,0.175 -0.026,0.346 -0.026,0.522c0,11.322 9.178,20.5 20.5,20.5c6.437,0 12.175,-2.972 15.934,-7.614c2.178,2.225 5.206,3.614 8.566,3.614c4.65,0 8.674,-2.65 10.666,-6.518c1.052,0.335 2.171,0.518 3.334,0.518c6.075,0 11,-4.925 11,-11c0,-3.311 -1.47,-6.273 -3.785,-8.29z" fill="#3080e8"></path><path d="M15.405,51h-9.905c-0.276,0 -0.5,-0.224 -0.5,-0.5c0,-0.276 0.224,-0.5 0.5,-0.5h9.905c0.276,0 0.5,0.224 0.5,0.5c0,0.276 -0.223,0.5 -0.5,0.5z" fill="#ffffff"></path><path d="M18.5,51h-1c-0.276,0 -0.5,-0.224 -0.5,-0.5c0,-0.276 0.224,-0.5 0.5,-0.5h1c0.276,0 0.5,0.224 0.5,0.5c0,0.276 -0.223,0.5 -0.5,0.5z" fill="#ffffff"></path><path d="M23.491,53h-8.991c-0.276,0 -0.5,-0.224 -0.5,-0.5c0,-0.276 0.224,-0.5 0.5,-0.5h8.991c0.276,0 0.5,0.224 0.5,0.5c0,0.276 -0.224,0.5 -0.5,0.5z" fill="#ffffff"></path><path d="M12.5,53h-1c-0.276,0 -0.5,-0.224 -0.5,-0.5c0,-0.276 0.224,-0.5 0.5,-0.5h1c0.276,0 0.5,0.224 0.5,0.5c0,0.276 -0.223,0.5 -0.5,0.5z" fill="#ffffff"></path><path d="M9.5,53h-2c-0.276,0 -0.5,-0.224 -0.5,-0.5c0,-0.276 0.224,-0.5 0.5,-0.5h2c0.276,0 0.5,0.224 0.5,0.5c0,0.276 -0.223,0.5 -0.5,0.5z" fill="#ffffff"></path><path d="M15.5,55h-2c-0.276,0 -0.5,-0.224 -0.5,-0.5c0,-0.276 0.224,-0.5 0.5,-0.5h2c0.276,0 0.5,0.224 0.5,0.5c0,0.276 -0.224,0.5 -0.5,0.5z" fill="#ffffff"></path><path d="M18.5,46c-0.177,0 -0.823,0 -1,0c-0.276,0 -0.5,0.224 -0.5,0.5c0,0.276 0.224,0.5 0.5,0.5c0.177,0 0.823,0 1,0c0.276,0 0.5,-0.224 0.5,-0.5c0,-0.276 -0.224,-0.5 -0.5,-0.5z" fill="#ffffff"></path><path d="M18.5,48c-0.177,0 -4.823,0 -5,0c-0.276,0 -0.5,0.224 -0.5,0.5c0,0.276 0.224,0.5 0.5,0.5c0.177,0 4.823,0 5,0c0.276,0 0.5,-0.224 0.5,-0.5c0,-0.276 -0.224,-0.5 -0.5,-0.5z" fill="#ffffff"></path><path d="M23.5,50c-0.177,0 -2.823,0 -3,0c-0.276,0 -0.5,0.224 -0.5,0.5c0,0.276 0.224,0.5 0.5,0.5c0.177,0 2.823,0 3,0c0.276,0 0.5,-0.224 0.5,-0.5c0,-0.276 -0.224,-0.5 -0.5,-0.5z" fill="#ffffff"></path><path d="M85.5,46h-10c-0.276,0 -0.5,-0.224 -0.5,-0.5c0,-0.276 0.224,-0.5 0.5,-0.5h10c0.276,0 0.5,0.224 0.5,0.5c0,0.276 -0.224,0.5 -0.5,0.5z" fill="#ffffff"></path><path d="M89.5,46h-2c-0.276,0 -0.5,-0.224 -0.5,-0.5c0,-0.276 0.224,-0.5 0.5,-0.5h2c0.276,0 0.5,0.224 0.5,0.5c0,0.276 -0.224,0.5 -0.5,0.5z" fill="#ffffff"></path><path d="M94.5,48h-10c-0.276,0 -0.5,-0.224 -0.5,-0.5c0,-0.276 0.224,-0.5 0.5,-0.5h10c0.276,0 0.5,0.224 0.5,0.5c0,0.276 -0.223,0.5 -0.5,0.5z" fill="#ffffff"></path><path d="M82.5,48h-1c-0.276,0 -0.5,-0.224 -0.5,-0.5c0,-0.276 0.224,-0.5 0.5,-0.5h1c0.276,0 0.5,0.224 0.5,0.5c0,0.276 -0.224,0.5 -0.5,0.5z" fill="#ffffff"></path><path d="M79.375,48h-1.875c-0.276,0 -0.5,-0.224 -0.5,-0.5c0,-0.276 0.224,-0.5 0.5,-0.5h1.875c0.276,0 0.5,0.224 0.5,0.5c0,0.276 -0.224,0.5 -0.5,0.5z" fill="#ffffff"></path><path d="M88.5,44h-5c-0.276,0 -0.5,-0.224 -0.5,-0.5c0,-0.276 0.224,-0.5 0.5,-0.5h5c0.276,0 0.5,0.224 0.5,0.5c0,0.276 -0.223,0.5 -0.5,0.5z" fill="#ffffff"></path><path d="M85.5,50h-2c-0.276,0 -0.5,-0.224 -0.5,-0.5c0,-0.276 0.224,-0.5 0.5,-0.5h2c0.276,0 0.5,0.224 0.5,0.5c0,0.276 -0.224,0.5 -0.5,0.5z" fill="#ffffff"></path><path d="M43.875,32.5c0,0 3.64,0 6.125,0c2.485,0 4.5,-2.015 4.5,-4.5c0,-2.333 -1.782,-4.229 -4.055,-4.455c0.022,-0.181 0.055,-0.358 0.055,-0.545c0,-2.485 -2.015,-4.5 -4.5,-4.5c-1.438,0 -2.703,0.686 -3.527,1.736c-0.14,-2.636 -2.302,-4.736 -4.973,-4.736c-2.761,0 -5,2.239 -5,5c0,0.446 0.077,0.87 0.187,1.282c-0.642,-0.777 -1.601,-1.282 -2.687,-1.282c-1.781,0 -3.234,1.335 -3.455,3.055c-0.181,-0.022 -0.358,-0.055 -0.545,-0.055c-2.485,0 -4.5,2.015 -4.5,4.5c0,2.485 2.015,4.5 4.5,4.5c2.485,0 9.5,0 9.5,0h5.375v0.5h3z" fill="#fdfcef"></path><path d="M37.5,15c-3.033,0 -5.5,2.467 -5.5,5.5c0,0.016 0,0.031 0,0.047c-0.602,-0.355 -1.29,-0.547 -2,-0.547c-1.831,0 -3.411,1.261 -3.858,3.005c-0.047,-0.003 -0.094,-0.005 -0.142,-0.005c-2.757,0 -5,2.243 -5,5c0,2.757 2.243,5 5,5h14.875c0.276,0 0.5,-0.224 0.5,-0.5c0,-0.276 -0.224,-0.5 -0.5,-0.5h-14.875c-2.206,0 -4,-1.794 -4,-4c0,-2.206 1.794,-4 4,-4c0.117,0 0.23,0.017 0.343,0.032l0.141,0.019c0.021,0.003 0.041,0.004 0.062,0.004c0.246,0 0.462,-0.185 0.495,-0.437c0.191,-1.493 1.463,-2.618 2.959,-2.618c0.885,0 1.723,0.401 2.301,1.1c0.098,0.118 0.241,0.182 0.386,0.182c0.078,0 0.156,-0.018 0.228,-0.056c0.209,-0.107 0.314,-0.346 0.254,-0.573c-0.115,-0.435 -0.169,-0.801 -0.169,-1.153c0,-2.481 2.019,-4.5 4.5,-4.5c2.381,0 4.347,1.872 4.474,4.263c0.011,0.208 0.15,0.387 0.349,0.45c0.05,0.016 0.101,0.024 0.152,0.024c0.15,0 0.296,-0.069 0.392,-0.192c0.771,-0.982 1.912,-1.545 3.133,-1.545c2.206,0 4,1.794 4,4c0,0.117 -0.017,0.23 -0.032,0.343l-0.019,0.141c-0.016,0.134 0.022,0.268 0.106,0.373c0.084,0.105 0.207,0.172 0.34,0.185c2.056,0.205 3.605,1.907 3.605,3.958c0,2.206 -1.794,4 -4,4h-6.125c-0.276,0 -0.5,0.224 -0.5,0.5c0,0.276 0.224,0.5 0.5,0.5h6.125c2.757,0 5,-2.243 5,-5c0,-2.397 -1.689,-4.413 -4.003,-4.877c0.002,-0.041 0.003,-0.082 0.003,-0.123c0,-2.757 -2.243,-5 -5,-5c-1.176,0 -2.293,0.416 -3.183,1.164c-0.598,-2.404 -2.762,-4.164 -5.317,-4.164z" fill="#472b29"></path><path d="M36,22c-1.403,0 -2.609,0.999 -2.913,2.341c-0.367,-0.222 -0.786,-0.341 -1.212,-0.341c-1.202,0 -2.198,0.897 -2.353,2.068c-0.203,-0.046 -0.396,-0.068 -0.585,-0.068c-1.529,0 -2.811,1.2 -2.918,2.732c-0.009,0.138 0.095,0.258 0.232,0.268c0.006,0 0.012,0 0.018,0c0.13,0 0.24,-0.101 0.249,-0.232c0.089,-1.271 1.151,-2.268 2.419,-2.268c0.229,0 0.47,0.042 0.738,0.127c0.022,0.007 0.045,0.01 0.067,0.01c0.055,0 0.11,-0.02 0.156,-0.054c0.064,-0.046 0.102,-0.128 0.102,-0.208c0,-1.034 0.841,-1.875 1.875,-1.875c0.447,0 0.885,0.168 1.231,0.473c0.047,0.041 0.106,0.063 0.165,0.063c0.032,0 0.063,-0.006 0.093,-0.019c0.088,-0.035 0.148,-0.117 0.155,-0.212c0.104,-1.293 1.193,-2.305 2.481,-2.305c0.208,0 0.425,0.034 0.682,0.107c0.023,0.007 0.047,0.01 0.07,0.01c0.109,0 0.207,-0.073 0.239,-0.182c0.038,-0.133 -0.039,-0.271 -0.172,-0.309c-0.302,-0.086 -0.563,-0.126 -0.819,-0.126z" fill="#472b29"></path><path d="M49.883,23.5c-1.326,0 -2.508,0.897 -2.874,2.182c-0.038,0.133 0.039,0.271 0.172,0.309c0.024,0.006 0.047,0.009 0.069,0.009c0.109,0 0.209,-0.072 0.24,-0.182c0.305,-1.07 1.289,-1.818 2.393,-1.818c0.117,0 0.23,0.014 0.342,0.029c0.012,0.002 0.023,0.003 0.035,0.003c0.121,0 0.229,-0.092 0.246,-0.217c0.019,-0.137 -0.077,-0.263 -0.214,-0.281c-0.134,-0.018 -0.27,-0.034 -0.409,-0.034z" fill="#472b29"></path><path d="M72.3,35.7v30.6c0,3.31 -2.69,6 -6,6h-30.6c-3.31,0 -6,-2.69 -6,-6v-30.6c0,-3.31 2.69,-6 6,-6h30.6c3.31,0 6,2.69 6,6z" fill="#3231c7"></path><path d="M72.3,47.25v19.05c0,3.31 -2.69,6 -6,6h-30.6c-3.31,0 -6,-2.69 -6,-6v-30.6c0,-3.31 2.69,-6 6,-6h19.05c7.24,4.25 13.3,10.31 17.55,17.55z" fill="#7228ad"></path><path d="M70.96,70.08c-1.1,1.35 -2.78,2.22 -4.66,2.22h-30.6c-3.31,0 -6,-2.69 -6,-6v-30.6c0,-1.88 0.87,-3.56 2.22,-4.66c21.11,0.98 38.06,17.93 39.04,39.04z" fill="#b11e93"></path><path d="M63,72v0.3h-27.3c-3.31,0 -6,-2.69 -6,-6v-27.3h0.3c18.23,0 33,14.77 33,33z" fill="#db1a58"></path><path d="M55,72c0,0.1 0,0.2 -0.01,0.3h-19.29c-3.31,0 -6,-2.69 -6,-6v-19.29c0.1,-0.01 0.2,-0.01 0.3,-0.01c13.81,0 25,11.19 25,25z" fill="#e4273e"></path><path d="M48,72c0,0.1 0,0.2 -0.01,0.3h-12.29c-3.31,0 -6,-2.69 -6,-6v-12.29c0.1,-0.01 0.2,-0.01 0.3,-0.01c9.94,0 18,8.06 18,18z" fill="#f47c22"></path><path d="M42,72c0,0.1 0,0.2 -0.01,0.3h-6.29c-3.31,0 -6,-2.69 -6,-6v-6.29c0.1,-0.01 0.2,-0.01 0.3,-0.01c6.63,0 12,5.37 12,12z" fill="#ef9922"></path><path d="M66.3,73h-30.6c-3.694,0 -6.7,-3.006 -6.7,-6.7v-30.6c0,-3.694 3.006,-6.7 6.7,-6.7h30.6c3.694,0 6.7,3.006 6.7,6.7v30.6c0,3.694 -3.006,6.7 -6.7,6.7zM35.7,30.4c-2.923,0 -5.3,2.377 -5.3,5.3v30.6c0,2.922 2.377,5.3 5.3,5.3h30.6c2.923,0 5.3,-2.377 5.3,-5.3v-30.6c0,-2.922 -2.377,-5.3 -5.3,-5.3z" fill="#472b29"></path><path d="M50.99,66.5c-3.983,0 -5.466,-0.011 -6.98,-0.08c-1.393,-0.062 -2.479,-0.272 -3.52,-0.68c-1.014,-0.391 -1.806,-0.906 -2.57,-1.67c-0.759,-0.759 -1.273,-1.552 -1.67,-2.57c-0.396,-1.013 -0.606,-2.098 -0.68,-3.52c-0.069,-1.527 -0.08,-3.008 -0.08,-6.98c0,-3.965 0.011,-5.443 0.08,-6.97c0.062,-1.393 0.271,-2.479 0.68,-3.52c0.396,-1.027 0.911,-1.82 1.67,-2.57c0.759,-0.758 1.552,-1.273 2.57,-1.67c1.041,-0.407 2.127,-0.617 3.52,-0.68c1.566,-0.071 3.067,-0.09 6.98,-0.09c3.915,0 5.413,0.019 6.97,0.09c1.393,0.063 2.479,0.272 3.521,0.68c1.027,0.396 1.819,0.911 2.569,1.67c0.752,0.743 1.27,1.535 1.681,2.57c0.399,1.052 0.606,2.139 0.67,3.521c0.07,1.581 0.09,3.08 0.09,6.97c0,3.898 -0.02,5.398 -0.09,6.98c-0.063,1.382 -0.27,2.468 -0.67,3.52c-0.41,1.025 -0.929,1.819 -1.681,2.57c-0.748,0.757 -1.537,1.272 -2.56,1.67c-1.055,0.408 -2.144,0.617 -3.53,0.68c-1.515,0.068 -2.995,0.079 -6.97,0.079zM49.68,38.5c-2.751,0 -4.262,0.021 -5.573,0.079c-1.334,0.062 -2.069,0.285 -2.562,0.472c-0.609,0.239 -1.046,0.524 -1.508,0.987c-0.461,0.46 -0.746,0.895 -0.982,1.499c-0.188,0.494 -0.413,1.23 -0.476,2.569c-0.068,1.505 -0.079,2.893 -0.079,6.884c0,3.999 0.011,5.389 0.079,6.893c0.062,1.329 0.286,2.064 0.474,2.556c0.239,0.621 0.514,1.043 0.979,1.508c0.468,0.459 0.906,0.743 1.514,0.982c0.476,0.186 1.195,0.408 2.56,0.472c1.559,0.07 3.038,0.089 6.886,0.089c3.855,0 5.337,-0.02 6.893,-0.089c1.397,-0.064 2.134,-0.301 2.566,-0.474c0.599,-0.231 1.033,-0.512 1.497,-0.967c0.46,-0.469 0.746,-0.908 0.989,-1.516c0.185,-0.483 0.402,-1.208 0.466,-2.559c0.069,-1.572 0.089,-3.054 0.089,-6.895c0,-3.834 -0.02,-5.313 -0.089,-6.884c-0.063,-1.349 -0.281,-2.074 -0.464,-2.555c-0.236,-0.612 -0.52,-1.049 -0.979,-1.508c-0.493,-0.484 -0.893,-0.742 -1.53,-0.985c-0.461,-0.184 -1.17,-0.404 -2.544,-0.469c-1.534,-0.07 -3.017,-0.089 -6.895,-0.089z" fill="#ffffff"></path><path d="M50.99,35.8c3.909,0 5.405,0.019 6.956,0.09c1.359,0.061 2.415,0.265 3.428,0.66c0.985,0.38 1.744,0.873 2.467,1.605c0.719,0.71 1.216,1.47 1.608,2.459c0.389,1.024 0.59,2.081 0.652,3.429c0.07,1.576 0.089,3.072 0.089,6.957c0,3.893 -0.019,5.39 -0.089,6.966c-0.062,1.35 -0.263,2.407 -0.648,3.42c-0.396,0.989 -0.894,1.751 -1.617,2.474c-0.716,0.725 -1.473,1.219 -2.453,1.6c-1.023,0.395 -2.083,0.599 -3.436,0.66c-1.509,0.069 -2.986,0.08 -6.956,0.08c-3.978,0 -5.458,-0.011 -6.967,-0.08c-1.359,-0.061 -2.415,-0.264 -3.426,-0.66c-0.971,-0.375 -1.731,-0.869 -2.465,-1.602c-0.728,-0.729 -1.222,-1.489 -1.603,-2.468c-0.384,-0.981 -0.587,-2.038 -0.659,-3.423c-0.069,-1.522 -0.08,-3.001 -0.08,-6.968c0,-3.959 0.011,-5.436 0.08,-6.957c0.061,-1.359 0.264,-2.415 0.66,-3.427c0.38,-0.985 0.873,-1.745 1.603,-2.465c0.727,-0.727 1.488,-1.221 2.467,-1.602c1.009,-0.394 2.065,-0.598 3.424,-0.66c1.56,-0.069 3.057,-0.088 6.965,-0.088M50.99,63.79c3.861,0 5.345,-0.019 6.907,-0.089c1.443,-0.067 2.211,-0.314 2.658,-0.493c0.641,-0.248 1.105,-0.547 1.609,-1.041c0.487,-0.497 0.791,-0.964 1.053,-1.62c0.191,-0.501 0.419,-1.255 0.483,-2.649c0.07,-1.576 0.089,-3.061 0.089,-6.908c0,-3.839 -0.019,-5.322 -0.089,-6.898c-0.065,-1.391 -0.292,-2.145 -0.483,-2.65c-0.249,-0.645 -0.562,-1.126 -1.049,-1.614c-0.518,-0.509 -0.96,-0.794 -1.625,-1.048c-0.486,-0.194 -1.225,-0.425 -2.645,-0.492c-1.539,-0.07 -3.024,-0.089 -6.907,-0.089h-1.311c-2.756,0 -4.27,0.021 -5.588,0.079c-1.376,0.064 -2.141,0.296 -2.658,0.493c-0.641,0.251 -1.122,0.566 -1.609,1.053c-0.487,0.486 -0.801,0.965 -1.051,1.605c-0.197,0.513 -0.431,1.28 -0.495,2.662c-0.069,1.511 -0.08,2.901 -0.08,6.898c0,4.004 0.01,5.397 0.08,6.907c0.064,1.372 0.297,2.136 0.493,2.65c0.252,0.654 0.556,1.121 1.05,1.615c0.491,0.482 0.973,0.795 1.613,1.046c0.496,0.194 1.247,0.426 2.656,0.492c1.564,0.072 3.047,0.091 6.899,0.091M50.99,35.3c-3.991,0 -5.454,0.021 -6.989,0.09c-1.417,0.064 -2.522,0.279 -3.583,0.693c-1.047,0.408 -1.86,0.937 -2.639,1.714c-0.78,0.771 -1.31,1.585 -1.716,2.639c-0.416,1.062 -0.63,2.168 -0.693,3.584c-0.069,1.537 -0.08,3.019 -0.08,6.979c0,3.969 0.011,5.452 0.08,6.99c0.075,1.444 0.289,2.549 0.693,3.583c0.407,1.045 0.937,1.859 1.715,2.639c0.786,0.786 1.601,1.314 2.639,1.715c1.062,0.416 2.168,0.63 3.584,0.693c1.537,0.07 3.02,0.081 6.989,0.081c3.96,0 5.441,-0.01 6.979,-0.081c1.41,-0.063 2.519,-0.277 3.594,-0.693c1.051,-0.409 1.861,-0.938 2.629,-1.715c0.771,-0.771 1.303,-1.584 1.726,-2.64c0.409,-1.075 0.619,-2.18 0.684,-3.583c0.068,-1.536 0.09,-3 0.09,-6.989c0,-3.979 -0.021,-5.443 -0.09,-6.979c-0.064,-1.402 -0.274,-2.506 -0.685,-3.585c-0.421,-1.062 -0.953,-1.876 -1.724,-2.637c-0.771,-0.78 -1.584,-1.309 -2.639,-1.716c-1.063,-0.416 -2.169,-0.629 -3.585,-0.693c-1.526,-0.068 -2.987,-0.089 -6.979,-0.089zM50.99,63.29c-3.842,0 -5.32,-0.019 -6.876,-0.089c-1.336,-0.062 -2.036,-0.278 -2.496,-0.458c-0.582,-0.229 -1,-0.5 -1.445,-0.938c-0.441,-0.441 -0.705,-0.846 -0.934,-1.438c-0.182,-0.476 -0.399,-1.195 -0.46,-2.494c-0.068,-1.492 -0.079,-2.881 -0.079,-6.884c0,-3.995 0.011,-5.382 0.079,-6.875c0.061,-1.308 0.278,-2.026 0.462,-2.506c0.225,-0.574 0.497,-0.99 0.938,-1.43c0.44,-0.441 0.856,-0.713 1.438,-0.941c0.473,-0.18 1.192,-0.399 2.499,-0.459c1.304,-0.056 2.814,-0.078 5.564,-0.078h1.311c3.876,0 5.355,0.019 6.885,0.088c1.346,0.063 2.033,0.277 2.482,0.457c0.612,0.234 0.99,0.478 1.46,0.94c0.436,0.436 0.708,0.854 0.934,1.438c0.176,0.463 0.389,1.17 0.45,2.493c0.069,1.557 0.089,3.036 0.089,6.875c0,3.847 -0.02,5.328 -0.089,6.886c-0.062,1.322 -0.273,2.027 -0.451,2.494c-0.234,0.586 -0.501,0.996 -0.943,1.448c-0.445,0.437 -0.851,0.7 -1.432,0.924c-0.424,0.169 -1.13,0.396 -2.501,0.459c-1.555,0.069 -3.035,0.088 -6.885,0.088z" fill="#472b29"></path><path d="M59.5,40.751c-0.966,0 -1.75,0.783 -1.75,1.749c0,0.966 0.784,1.75 1.75,1.75c0.966,0 1.75,-0.784 1.75,-1.75c0,-0.966 -0.784,-1.75 -1.75,-1.749z" fill="#ffffff"></path><path d="M59.5,41c0.828,0 1.5,0.672 1.5,1.5c0,0.828 -0.672,1.5 -1.5,1.5c-0.828,0 -1.5,-0.672 -1.5,-1.5c0,-0.828 0.672,-1.499 1.5,-1.5v0M59.5,40.5v0c-1.103,0.001 -2,0.898 -2,2c0,1.103 0.897,2 2,2c1.103,0 2,-0.897 2,-2c0,-1.103 -0.897,-2 -2,-2z" fill="#472b29"></path><path d="M50.988,42.504c-4.695,0 -8.501,3.806 -8.501,8.501c0,4.695 3.806,8.499 8.501,8.499c4.695,0 8.499,-3.805 8.499,-8.499c0,-4.694 -3.805,-8.501 -8.499,-8.501zM50.988,45.505c3.037,0 5.5,2.462 5.5,5.5c0,3.037 -2.463,5.5 -5.5,5.5c-3.038,0 -5.5,-2.463 -5.5,-5.5c0,-3.038 2.462,-5.5 5.5,-5.5z" fill="#ffffff"></path><path d="M50.988,59.754c-4.825,0 -8.751,-3.925 -8.751,-8.75c0,-4.825 3.926,-8.75 8.751,-8.75c4.824,0 8.749,3.925 8.749,8.75c0,4.825 -3.925,8.75 -8.749,8.75zM50.988,42.754c-4.55,0 -8.251,3.701 -8.251,8.25c0,4.549 3.701,8.25 8.251,8.25c4.549,0 8.249,-3.701 8.249,-8.25c0,-4.549 -3.7,-8.25 -8.249,-8.25zM50.988,56.754c-3.171,0 -5.75,-2.58 -5.75,-5.75c0,-3.17 2.579,-5.75 5.75,-5.75c3.171,0 5.75,2.58 5.75,5.75c0,3.17 -2.579,5.75 -5.75,5.75zM50.988,45.754c-2.895,0 -5.25,2.355 -5.25,5.25c0,2.895 2.355,5.25 5.25,5.25c2.895,0 5.25,-2.355 5.25,-5.25c0,-2.895 -2.355,-5.25 -5.25,-5.25z" fill="#472b29"></path><g><path d="M80.5,76.5c0,0 1.567,0 3.5,0c1.933,0 3.5,-1.567 3.5,-3.5c0,-1.781 -1.335,-3.234 -3.055,-3.455c0.028,-0.179 0.055,-0.358 0.055,-0.545c0,-1.933 -1.567,-3.5 -3.5,-3.5c-1.032,0 -1.95,0.455 -2.59,1.165c-0.384,-1.808 -1.987,-3.165 -3.91,-3.165c-2.209,0 -4,1.791 -4,4c0,0.191 0.03,0.374 0.056,0.558c-0.428,-0.344 -0.964,-0.558 -1.556,-0.558c-1.228,0 -2.245,0.887 -2.455,2.055c-0.179,-0.028 -0.358,-0.055 -0.545,-0.055c-1.933,0 -3.5,1.567 -3.5,3.5c0,1.933 1.567,3.5 3.5,3.5c1.933,0 7.5,0 7.5,0v0.5h7z" fill="#fdfcef"></path><path d="M82.25,72c-0.138,0 -0.25,-0.112 -0.25,-0.25c0,-1.223 0.995,-2.218 2.218,-2.218c0.034,0.009 0.737,-0.001 1.244,0.136c0.133,0.036 0.212,0.173 0.176,0.306c-0.036,0.134 -0.173,0.213 -0.306,0.176c-0.444,-0.12 -1.1,-0.12 -1.113,-0.118c-0.948,0 -1.719,0.771 -1.719,1.718c0,0.138 -0.112,0.25 -0.25,0.25z" fill="#472b29"></path><circle cx="75.5" cy="76.5" r="0.5" fill="#472b29"></circle><path d="M84,77h-3.5c-0.276,0 -0.5,-0.224 -0.5,-0.5c0,-0.276 0.224,-0.5 0.5,-0.5h3.5c1.654,0 3,-1.346 3,-3c0,-1.496 -1.125,-2.768 -2.618,-2.959c-0.134,-0.018 -0.255,-0.088 -0.336,-0.196c-0.081,-0.108 -0.115,-0.244 -0.094,-0.377c0.023,-0.154 0.048,-0.308 0.048,-0.468c0,-1.654 -1.346,-3 -3,-3c-0.85,0 -1.638,0.355 -2.219,1c-0.125,0.139 -0.321,0.198 -0.5,0.148c-0.182,-0.049 -0.321,-0.195 -0.36,-0.379c-0.341,-1.604 -1.78,-2.769 -3.421,-2.769c-1.93,0 -3.5,1.57 -3.5,3.5c0,0.143 0.021,0.28 0.041,0.418c0.029,0.203 -0.063,0.438 -0.242,0.54c-0.179,0.102 -0.396,0.118 -0.556,-0.01c-0.365,-0.293 -0.794,-0.448 -1.243,-0.448c-0.966,0 -1.792,0.691 -1.963,1.644c-0.048,0.267 -0.296,0.446 -0.569,0.405c-0.154,-0.024 -0.308,-0.049 -0.468,-0.049c-1.654,0 -3,1.346 -3,3c0,1.654 1.346,3 3,3h7.5c0.276,0 0.5,0.224 0.5,0.5c0,0.276 -0.224,0.5 -0.5,0.5h-7.5c-2.206,0 -4,-1.794 -4,-4c0,-2.206 1.794,-4 4,-4c0.059,0 0.116,0.002 0.174,0.006c0.414,-1.186 1.537,-2.006 2.826,-2.006c0.349,0 0.689,0.061 1.011,0.18c0.165,-2.333 2.115,-4.18 4.489,-4.18c1.831,0 3.466,1.127 4.153,2.774c0.68,-0.498 1.502,-0.774 2.347,-0.774c2.206,0 4,1.794 4,4c0,0.048 -0.001,0.095 -0.004,0.142c1.743,0.448 3.004,2.027 3.004,3.858c0,2.206 -1.794,4 -4,4z" fill="#472b29"></path><path d="M78.5,76c-0.159,0 -0.841,0 -1,0c-0.276,0 -0.5,0.224 -0.5,0.5c0,0.276 0.224,0.5 0.5,0.5c0.159,0 0.841,0 1,0c0.276,0 0.5,-0.224 0.5,-0.5c0,-0.276 -0.224,-0.5 -0.5,-0.5z" fill="#472b29"></path></g></g></g></svg>